<?xml version="1.0" encoding="utf-8"?>
<svg version="1.1" id="mwm"
	 xmlns="http://www.w3.org/2000/svg" xmlns:xlink="http://www.w3.org/1999/xlink" x="0px" y="0px" viewBox="0 0 24 24"
	 style="enable-background:new 0 0 24 24;" xml:space="preserve">
<style type="text/css">
	.st0{fill:#0083C5;}
</style>
<path class="st0" d="M8,0h12c1.1,0,2,0.9,2,2v16c0,1.1-0.9,2-2,2H8c-1.1,0-2-0.9-2-2V2C6,0.9,6.9,0,8,0 M14.8,11.5
	c2.8,0,3.5-2,3.7-3.1C19.3,8.1,20,7.3,20,6.2C20,5,19,4,17.8,4s-2.2,1-2.2,2.2c0,0.9,0.6,1.8,1.4,2.1C16.7,9,16,10,14,10
	c-1.4,0-2.3,0.4-3,0.8v-4c0.9-0.3,1.5-1.1,1.5-2.1c0-1.2-1-2.2-2.2-2.2S8,3.5,8,4.8c0,1,0.6,1.8,1.5,2.1v6.3C8.6,13.4,8,14.3,8,15.2
	c0,1.2,1,2.2,2.2,2.2s2.2-1,2.2-2.2c0-0.9-0.6-1.8-1.4-2.1C11.4,12.5,12.2,11.5,14.8,11.5 M10.2,14.5c0.4,0,0.8,0.3,0.8,0.8l0,0
	c0,0.4-0.3,0.8-0.8,0.8s-0.8-0.3-0.8-0.8S9.8,14.5,10.2,14.5L10.2,14.5 M10.2,4C10.7,4,11,4.3,11,4.8s-0.3,0.8-0.8,0.8
	S9.5,5.2,9.5,4.8S9.8,4,10.2,4 M17.8,5.5c0.4,0,0.8,0.3,0.8,0.8S18.2,7,17.8,7S17,6.7,17,6.2S17.3,5.5,17.8,5.5 M16,22v2H4
	c-1.1,0-2-0.9-2-2V6h2v16H16z"/>
<path d="M19.8,10.5"/>
</svg>
